# Blender 4.4.0
# www.blender.org
o Cube
v -1.000000 2.000000 1.000000
v 1.000000 0.000000 1.000000
v 1.000000 2.000000 -1.000000
v -1.000000 0.417786 1.000000
v -0.582214 0.000000 1.000000
v -0.995748 0.358329 1.000000
v -0.983077 0.300082 1.000000
v -0.962246 0.244231 1.000000
v -0.933678 0.191914 1.000000
v -0.897956 0.144194 1.000000
v -0.855806 0.102044 1.000000
v -0.808086 0.066322 1.000000
v -0.755769 0.037754 1.000000
v -0.699918 0.016923 1.000000
v -0.641671 0.004252 1.000000
v -0.582214 0.000000 -0.582214
v -1.000000 0.417786 -0.582214
v -0.582214 0.417786 -1.000000
v -0.641670 0.004252 -0.582214
v -0.699922 0.016925 -0.582214
v -0.755765 0.037753 -0.582214
v -0.808091 0.066325 -0.582214
v -0.855801 0.102040 -0.582214
v -0.582214 0.004252 -0.641670
v -0.643348 0.008956 -0.642764
v -0.703353 0.022617 -0.643138
v -0.758984 0.044182 -0.643187
v -0.809391 0.072463 -0.642942
v -0.854083 0.106393 -0.642767
v -0.582214 0.016925 -0.699922
v -0.643871 0.022566 -0.702816
v -0.704205 0.037020 -0.703378
v -0.758513 0.058578 -0.702354
v -0.806143 0.085551 -0.700625
v -0.847218 0.116826 -0.699437
v -0.582214 0.037753 -0.755765
v -0.643763 0.044234 -0.758894
v -0.703097 0.058699 -0.758250
v -0.755239 0.078987 -0.754906
v -0.799691 0.103285 -0.750553
v -0.837063 0.131002 -0.747599
v -0.582214 0.066325 -0.808091
v -0.643320 0.072692 -0.809637
v -0.701110 0.085833 -0.806304
v -0.750790 0.103404 -0.799680
v -0.792102 0.123748 -0.792056
v -0.825714 0.146819 -0.786738
v -0.582214 0.102041 -0.855801
v -0.642898 0.106719 -0.854427
v -0.699601 0.117145 -0.847508
v -0.747681 0.131135 -0.837160
v -0.786756 0.146848 -0.825731
v -0.816418 0.163144 -0.816418
v -0.995748 0.417786 -0.641670
v -0.983075 0.417786 -0.699922
v -0.962247 0.417786 -0.755765
v -0.933675 0.417786 -0.808091
v -0.897960 0.417786 -0.855801
v -0.995748 0.358330 -0.582214
v -0.991044 0.357236 -0.643348
v -0.977383 0.356862 -0.703353
v -0.955818 0.356813 -0.758984
v -0.927537 0.357058 -0.809391
v -0.893607 0.357233 -0.854083
v -0.983075 0.300078 -0.582214
v -0.977434 0.297184 -0.643871
v -0.962980 0.296622 -0.704205
v -0.941422 0.297646 -0.758513
v -0.914449 0.299375 -0.806143
v -0.883174 0.300563 -0.847218
v -0.962247 0.244235 -0.582214
v -0.955766 0.241106 -0.643763
v -0.941301 0.241750 -0.703097
v -0.921013 0.245094 -0.755239
v -0.896715 0.249447 -0.799691
v -0.868998 0.252401 -0.837063
v -0.933675 0.191909 -0.582214
v -0.927308 0.190363 -0.643320
v -0.914167 0.193696 -0.701110
v -0.896596 0.200320 -0.750790
v -0.876252 0.207944 -0.792102
v -0.853180 0.213262 -0.825714
v -0.897959 0.144199 -0.582214
v -0.893281 0.145573 -0.642898
v -0.882855 0.152492 -0.699601
v -0.868865 0.162840 -0.747681
v -0.853152 0.174269 -0.786756
v -0.836856 0.183582 -0.816418
v -0.582214 0.358330 -0.995748
v -0.582214 0.300078 -0.983075
v -0.582214 0.244235 -0.962247
v -0.582214 0.191909 -0.933675
v -0.582214 0.144199 -0.897960
v -0.641670 0.417786 -0.995748
v -0.642764 0.356652 -0.991044
v -0.643138 0.296647 -0.977383
v -0.643187 0.241016 -0.955818
v -0.642942 0.190609 -0.927537
v -0.642767 0.145917 -0.893607
v -0.699922 0.417786 -0.983075
v -0.702816 0.356129 -0.977434
v -0.703378 0.295795 -0.962980
v -0.702354 0.241487 -0.941422
v -0.700625 0.193857 -0.914449
v -0.699437 0.152782 -0.883174
v -0.755765 0.417786 -0.962247
v -0.758894 0.356237 -0.955766
v -0.758250 0.296903 -0.941301
v -0.754906 0.244761 -0.921013
v -0.750553 0.200309 -0.896715
v -0.747599 0.162937 -0.868998
v -0.808091 0.417786 -0.933675
v -0.809637 0.356680 -0.927308
v -0.806304 0.298890 -0.914167
v -0.799680 0.249210 -0.896596
v -0.792056 0.207898 -0.876252
v -0.786738 0.174286 -0.853180
v -0.855801 0.417786 -0.897959
v -0.854427 0.357102 -0.893281
v -0.847508 0.300399 -0.882855
v -0.837160 0.252319 -0.868865
v -0.825731 0.213244 -0.853152
v -0.816418 0.183582 -0.836856
v -0.582214 2.000000 -1.000000
v -1.000000 2.000000 -0.582214
v -0.641671 2.000000 -0.995748
v -0.699918 2.000000 -0.983077
v -0.755769 2.000000 -0.962246
v -0.808086 2.000000 -0.933678
v -0.855806 2.000000 -0.897956
v -0.897956 2.000000 -0.855806
v -0.933678 2.000000 -0.808086
v -0.962246 2.000000 -0.755769
v -0.983077 2.000000 -0.699918
v -0.995748 2.000000 -0.641671
v 1.000000 0.000000 -0.582214
v 1.000000 0.417786 -1.000000
v 1.000000 0.004252 -0.641671
v 1.000000 0.016923 -0.699918
v 1.000000 0.037754 -0.755769
v 1.000000 0.066322 -0.808086
v 1.000000 0.102044 -0.855806
v 1.000000 0.144194 -0.897956
v 1.000000 0.191914 -0.933678
v 1.000000 0.244231 -0.962246
v 1.000000 0.300082 -0.983077
v 1.000000 0.358329 -0.995748
vn 1.0000 -0.0000 -0.0000
vn -0.0000 1.0000 -0.0000
vn -0.0000 -0.0000 1.0000
vn 0.9994 0.0357 -0.0000
vn 0.0357 0.9994 -0.0000
vn 0.9898 0.1423 -0.0000
vn 0.9595 0.2817 -0.0000
vn 0.9096 0.4154 -0.0000
vn 0.8413 0.5406 -0.0000
vn 0.7557 0.6549 -0.0000
vn 0.6549 0.7557 -0.0000
vn 0.5406 0.8413 -0.0000
vn 0.4154 0.9096 -0.0000
vn 0.2817 0.9595 -0.0000
vn 0.1423 0.9898 -0.0000
vn 0.0362 0.9987 0.0362
vn 0.9987 0.0362 0.0362
vn 0.0362 0.0362 0.9987
vn 0.1430 0.9890 0.0369
vn 0.2824 0.9586 0.0370
vn 0.4160 0.9086 0.0365
vn 0.5409 0.8403 0.0359
vn 0.6546 0.7551 0.0354
vn 0.0371 0.9890 0.1431
vn 0.1470 0.9783 0.1461
vn 0.2889 0.9461 0.1465
vn 0.4218 0.8950 0.1450
vn 0.5427 0.8277 0.1428
vn 0.6506 0.7461 0.1413
vn 0.0374 0.9586 0.2824
vn 0.1479 0.9462 0.2879
vn 0.2895 0.9128 0.2880
vn 0.4192 0.8623 0.2840
vn 0.5340 0.7983 0.2785
vn 0.6344 0.7225 0.2747
vn 0.0369 0.9086 0.4160
vn 0.1463 0.8950 0.4214
vn 0.2854 0.8621 0.4186
vn 0.4102 0.8149 0.4095
vn 0.5179 0.7572 0.3980
vn 0.6102 0.6896 0.3900
vn 0.0362 0.8403 0.5408
vn 0.1437 0.8273 0.5430
vn 0.2794 0.7978 0.5343
vn 0.3985 0.7570 0.5178
vn 0.4986 0.7092 0.4984
vn 0.5827 0.6531 0.4837
vn 0.0355 0.7551 0.6546
vn 0.1416 0.7455 0.6512
vn 0.2750 0.7218 0.6350
vn 0.3902 0.6892 0.6105
vn 0.4837 0.6530 0.5828
vn 0.5571 0.6158 0.5571
vn 0.9890 0.0369 0.1430
vn 0.9586 0.0370 0.2824
vn 0.9086 0.0365 0.4160
vn 0.8403 0.0359 0.5409
vn 0.7551 0.0354 0.6546
vn 0.9890 0.1431 0.0371
vn 0.9783 0.1461 0.1470
vn 0.9461 0.1465 0.2889
vn 0.8950 0.1450 0.4218
vn 0.8277 0.1428 0.5427
vn 0.7461 0.1413 0.6506
vn 0.9586 0.2824 0.0374
vn 0.9462 0.2879 0.1479
vn 0.9128 0.2880 0.2895
vn 0.8623 0.2840 0.4192
vn 0.7983 0.2785 0.5340
vn 0.7225 0.2747 0.6344
vn 0.9086 0.4160 0.0369
vn 0.8950 0.4214 0.1463
vn 0.8621 0.4186 0.2854
vn 0.8149 0.4095 0.4102
vn 0.7572 0.3980 0.5179
vn 0.6896 0.3900 0.6102
vn 0.8403 0.5408 0.0362
vn 0.8273 0.5430 0.1437
vn 0.7978 0.5343 0.2794
vn 0.7570 0.5178 0.3985
vn 0.7092 0.4984 0.4986
vn 0.6531 0.4837 0.5827
vn 0.7551 0.6546 0.0355
vn 0.7455 0.6512 0.1416
vn 0.7218 0.6350 0.2750
vn 0.6892 0.6105 0.3902
vn 0.6530 0.5828 0.4837
vn 0.6158 0.5571 0.5571
vn 0.0369 0.1430 0.9890
vn 0.0370 0.2824 0.9586
vn 0.0365 0.4160 0.9086
vn 0.0359 0.5409 0.8403
vn 0.0354 0.6546 0.7551
vn 0.1431 0.0371 0.9890
vn 0.1461 0.1470 0.9783
vn 0.1465 0.2889 0.9461
vn 0.1450 0.4218 0.8950
vn 0.1428 0.5427 0.8277
vn 0.1413 0.6506 0.7461
vn 0.2824 0.0374 0.9586
vn 0.2879 0.1479 0.9462
vn 0.2880 0.2895 0.9128
vn 0.2840 0.4192 0.8623
vn 0.2785 0.5340 0.7983
vn 0.2747 0.6344 0.7225
vn 0.4160 0.0369 0.9086
vn 0.4214 0.1463 0.8950
vn 0.4186 0.2854 0.8621
vn 0.4095 0.4102 0.8149
vn 0.3980 0.5179 0.7572
vn 0.3900 0.6102 0.6896
vn 0.5408 0.0362 0.8403
vn 0.5430 0.1437 0.8273
vn 0.5343 0.2794 0.7978
vn 0.5178 0.3985 0.7570
vn 0.4984 0.4986 0.7092
vn 0.4837 0.5827 0.6531
vn 0.6546 0.0355 0.7551
vn 0.6512 0.1416 0.7455
vn 0.6350 0.2750 0.7218
vn 0.6105 0.3902 0.6892
vn 0.5828 0.4837 0.6530
vn 0.5571 0.5571 0.6158
vn 0.0357 -0.0000 0.9994
vn 0.9994 -0.0000 0.0357
vn 0.1423 -0.0000 0.9898
vn 0.2817 -0.0000 0.9595
vn 0.4154 -0.0000 0.9096
vn 0.5406 -0.0000 0.8413
vn 0.6549 -0.0000 0.7557
vn 0.7557 -0.0000 0.6549
vn 0.8413 -0.0000 0.5406
vn 0.9096 -0.0000 0.4154
vn 0.9595 -0.0000 0.2817
vn 0.9898 -0.0000 0.1423
vn -0.0000 0.9994 0.0357
vn -0.0000 0.0357 0.9994
vn -0.0000 0.9898 0.1423
vn -0.0000 0.9595 0.2817
vn -0.0000 0.9096 0.4154
vn -0.0000 0.8413 0.5406
vn -0.0000 0.7557 0.6549
vn -0.0000 0.6549 0.7557
vn -0.0000 0.5406 0.8413
vn -0.0000 0.4154 0.9096
vn -0.0000 0.2817 0.9595
vn -0.0000 0.1423 0.9898
vt 0.595401 0.505062
vt 0.351472 0.804145
vt 0.717989 0.999900
vt 0.944788 0.653027
vt 0.552249 0.001790
vt 0.635285 0.364672
vt 0.999226 0.446710
vt 0.999226 0.000100
vt 0.495559 0.406302
vt 0.502359 0.417470
vt 0.513524 0.410458
vt 0.507026 0.399403
vt 0.525126 0.404053
vt 0.518870 0.393268
vt 0.536647 0.398380
vt 0.530834 0.387500
vt 0.548073 0.393488
vt 0.543069 0.382371
vt 0.559424 0.389427
vt 0.555560 0.377902
vt 0.570848 0.386000
vt 0.568313 0.374110
vt 0.509599 0.428264
vt 0.520521 0.421362
vt 0.531748 0.414819
vt 0.542576 0.409084
vt 0.552990 0.404238
vt 0.563108 0.400364
vt 0.573249 0.397407
vt 0.517076 0.438807
vt 0.527749 0.431658
vt 0.538383 0.424857
vt 0.548295 0.418877
vt 0.557541 0.413862
vt 0.566377 0.410034
vt 0.575277 0.407457
vt 0.525297 0.448720
vt 0.535311 0.441179
vt 0.545057 0.433923
vt 0.553864 0.427536
vt 0.561793 0.422192
vt 0.569241 0.418254
vt 0.576857 0.416047
vt 0.533797 0.458348
vt 0.543054 0.449974
vt 0.551863 0.441963
vt 0.559612 0.434948
vt 0.566292 0.429064
vt 0.571982 0.424696
vt 0.577628 0.423065
vt 0.621543 0.365548
vt 0.621439 0.378795
vt 0.634640 0.378413
vt 0.620601 0.392146
vt 0.633306 0.391991
vt 0.619206 0.405031
vt 0.631670 0.405417
vt 0.617235 0.417398
vt 0.629421 0.418663
vt 0.614627 0.429230
vt 0.626526 0.431702
vt 0.611462 0.440752
vt 0.622949 0.444525
vt 0.607954 0.366873
vt 0.608077 0.379757
vt 0.607671 0.392729
vt 0.606784 0.404958
vt 0.605367 0.416376
vt 0.603290 0.427036
vt 0.600427 0.437234
vt 0.594552 0.368749
vt 0.595096 0.381282
vt 0.595344 0.393743
vt 0.595238 0.405226
vt 0.594641 0.415678
vt 0.593236 0.425192
vt 0.590728 0.434142
vt 0.581297 0.370980
vt 0.582678 0.383307
vt 0.583870 0.395237
vt 0.584759 0.405944
vt 0.585184 0.415389
vt 0.584636 0.423742
vt 0.582505 0.431406
vt 0.576054 0.428746
vt 0.602079 0.493427
vt 0.590775 0.487243
vt 0.584031 0.498585
vt 0.579794 0.480416
vt 0.573170 0.491419
vt 0.569529 0.473317
vt 0.562549 0.484028
vt 0.560053 0.465846
vt 0.552545 0.475898
vt 0.551320 0.458052
vt 0.543024 0.467273
vt 0.608229 0.481564
vt 0.597099 0.475514
vt 0.586187 0.469064
vt 0.576190 0.462580
vt 0.567177 0.455998
vt 0.559134 0.449201
vt 0.613782 0.469462
vt 0.602687 0.463799
vt 0.591862 0.458021
vt 0.582076 0.452472
vt 0.573432 0.447015
vt 0.566001 0.441319
vt 0.618699 0.457112
vt 0.607474 0.452204
vt 0.596645 0.447435
vt 0.587002 0.443070
vt 0.578670 0.438945
vt 0.571776 0.434521
vt 0.363812 0.049899
vt 0.345632 0.056882
vt 0.382053 0.043088
vt 0.400635 0.036792
vt 0.419385 0.030897
vt 0.438271 0.025430
vt 0.457255 0.020412
vt 0.476297 0.015855
vt 0.495346 0.011550
vt 0.514377 0.007895
vt 0.533353 0.004652
vt 0.951713 0.634960
vt 0.958324 0.616673
vt 0.964582 0.598179
vt 0.970449 0.579503
vt 0.975899 0.560674
vt 0.980910 0.541730
vt 0.985472 0.522712
vt 0.989585 0.503660
vt 0.993260 0.484615
vt 0.996334 0.465642
vt 0.198110 0.651745
vt 0.210465 0.666759
vt 0.223157 0.681654
vt 0.236400 0.696309
vt 0.249775 0.710861
vt 0.263651 0.725051
vt 0.277658 0.739114
vt 0.292073 0.752710
vt 0.306712 0.765978
vt 0.321454 0.779110
vt 0.336427 0.791687
vt 0.000100 0.286254
s 1
f 18/1/18 137/2/137 3/3/3 124/4/124
f 4/5/4 17/6/17 125/7/125 1/8/1
f 16/9/16 24/10/24 25/11/25 19/12/19
f 19/12/19 25/11/25 26/13/26 20/14/20
f 20/14/20 26/13/26 27/15/27 21/16/21
f 21/16/21 27/15/27 28/17/28 22/18/22
f 22/18/22 28/17/28 29/19/29 23/20/23
f 23/20/23 29/19/29 84/21/84 83/22/83
f 24/10/24 30/23/30 31/24/31 25/11/25
f 25/11/25 31/24/31 32/25/32 26/13/26
f 26/13/26 32/25/32 33/26/33 27/15/27
f 27/15/27 33/26/33 34/27/34 28/17/28
f 28/17/28 34/27/34 35/28/35 29/19/29
f 29/19/29 35/28/35 85/29/85 84/21/84
f 30/23/30 36/30/36 37/31/37 31/24/31
f 31/24/31 37/31/37 38/32/38 32/25/32
f 32/25/32 38/32/38 39/33/39 33/26/33
f 33/26/33 39/33/39 40/34/40 34/27/34
f 34/27/34 40/34/40 41/35/41 35/28/35
f 35/28/35 41/35/41 86/36/86 85/29/85
f 36/30/36 42/37/42 43/38/43 37/31/37
f 37/31/37 43/38/43 44/39/44 38/32/38
f 38/32/38 44/39/44 45/40/45 39/33/39
f 39/33/39 45/40/45 46/41/46 40/34/40
f 40/34/40 46/41/46 47/42/47 41/35/41
f 41/35/41 47/42/47 87/43/87 86/36/86
f 42/37/42 48/44/48 49/45/49 43/38/43
f 43/38/43 49/45/49 50/46/50 44/39/44
f 44/39/44 50/46/50 51/47/51 45/40/45
f 45/40/45 51/47/51 52/48/52 46/41/46
f 46/41/46 52/48/52 53/49/53 47/42/47
f 47/42/47 53/49/53 88/50/88 87/43/87
f 17/6/17 59/51/59 60/52/60 54/53/54
f 54/53/54 60/52/60 61/54/61 55/55/55
f 55/55/55 61/54/61 62/56/62 56/57/56
f 56/57/56 62/56/62 63/58/63 57/59/57
f 57/59/57 63/58/63 64/60/64 58/61/58
f 58/61/58 64/60/64 119/62/119 118/63/118
f 59/51/59 65/64/65 66/65/66 60/52/60
f 60/52/60 66/65/66 67/66/67 61/54/61
f 61/54/61 67/66/67 68/67/68 62/56/62
f 62/56/62 68/67/68 69/68/69 63/58/63
f 63/58/63 69/68/69 70/69/70 64/60/64
f 64/60/64 70/69/70 120/70/120 119/62/119
f 65/64/65 71/71/71 72/72/72 66/65/66
f 66/65/66 72/72/72 73/73/73 67/66/67
f 67/66/67 73/73/73 74/74/74 68/67/68
f 68/67/68 74/74/74 75/75/75 69/68/69
f 69/68/69 75/75/75 76/76/76 70/69/70
f 70/69/70 76/76/76 121/77/121 120/70/120
f 71/71/71 77/78/77 78/79/78 72/72/72
f 72/72/72 78/79/78 79/80/79 73/73/73
f 73/73/73 79/80/79 80/81/80 74/74/74
f 74/74/74 80/81/80 81/82/81 75/75/75
f 75/75/75 81/82/81 82/83/82 76/76/76
f 76/76/76 82/83/82 122/84/122 121/77/121
f 77/78/77 83/22/83 84/21/84 78/79/78
f 78/79/78 84/21/84 85/29/85 79/80/79
f 79/80/79 85/29/85 86/36/86 80/81/80
f 80/81/80 86/36/86 87/43/87 81/82/81
f 81/82/81 87/43/87 88/50/88 82/83/82
f 82/83/82 88/50/88 123/85/123 122/84/122
f 18/1/18 94/86/94 95/87/95 89/88/89
f 89/88/89 95/87/95 96/89/96 90/90/90
f 90/90/90 96/89/96 97/91/97 91/92/91
f 91/92/91 97/91/97 98/93/98 92/94/92
f 92/94/92 98/93/98 99/95/99 93/96/93
f 93/96/93 99/95/99 49/45/49 48/44/48
f 94/86/94 100/97/100 101/98/101 95/87/95
f 95/87/95 101/98/101 102/99/102 96/89/96
f 96/89/96 102/99/102 103/100/103 97/91/97
f 97/91/97 103/100/103 104/101/104 98/93/98
f 98/93/98 104/101/104 105/102/105 99/95/99
f 99/95/99 105/102/105 50/46/50 49/45/49
f 100/97/100 106/103/106 107/104/107 101/98/101
f 101/98/101 107/104/107 108/105/108 102/99/102
f 102/99/102 108/105/108 109/106/109 103/100/103
f 103/100/103 109/106/109 110/107/110 104/101/104
f 104/101/104 110/107/110 111/108/111 105/102/105
f 105/102/105 111/108/111 51/47/51 50/46/50
f 106/103/106 112/109/112 113/110/113 107/104/107
f 107/104/107 113/110/113 114/111/114 108/105/108
f 108/105/108 114/111/114 115/112/115 109/106/109
f 109/106/109 115/112/115 116/113/116 110/107/110
f 110/107/110 116/113/116 117/114/117 111/108/111
f 111/108/111 117/114/117 52/48/52 51/47/51
f 112/109/112 118/63/118 119/62/119 113/110/113
f 113/110/113 119/62/119 120/70/120 114/111/114
f 114/111/114 120/70/120 121/77/121 115/112/115
f 115/112/115 121/77/121 122/84/122 116/113/116
f 116/113/116 122/84/122 123/85/123 117/114/117
f 117/114/117 123/85/123 53/49/53 52/48/52
f 53/49/53 123/85/123 88/50/88
f 16/9/16 19/12/19 15/115/15 5/116/5
f 19/12/19 20/14/20 14/117/14 15/115/15
f 20/14/20 21/16/21 13/118/13 14/117/14
f 21/16/21 22/18/22 12/119/12 13/118/13
f 22/18/22 23/20/23 11/120/11 12/119/12
f 23/20/23 83/22/83 10/121/10 11/120/11
f 83/22/83 77/78/77 9/122/9 10/121/10
f 77/78/77 71/71/71 8/123/8 9/122/9
f 71/71/71 65/64/65 7/124/7 8/123/8
f 65/64/65 59/51/59 6/125/6 7/124/7
f 59/51/59 17/6/17 4/5/4 6/125/6
f 124/4/124 126/126/126 94/86/94 18/1/18
f 126/126/126 127/127/127 100/97/100 94/86/94
f 127/127/127 128/128/128 106/103/106 100/97/100
f 128/128/128 129/129/129 112/109/112 106/103/106
f 129/129/129 130/130/130 118/63/118 112/109/112
f 130/130/130 131/131/131 58/61/58 118/63/118
f 131/131/131 132/132/132 57/59/57 58/61/58
f 132/132/132 133/133/133 56/57/56 57/59/57
f 133/133/133 134/134/134 55/55/55 56/57/56
f 134/134/134 135/135/135 54/53/54 55/55/55
f 135/135/135 125/7/125 17/6/17 54/53/54
f 136/136/136 138/137/138 24/10/24 16/9/16
f 138/137/138 139/138/139 30/23/30 24/10/24
f 139/138/139 140/139/140 36/30/36 30/23/30
f 140/139/140 141/140/141 42/37/42 36/30/36
f 141/140/141 142/141/142 48/44/48 42/37/42
f 142/141/142 143/142/143 93/96/93 48/44/48
f 143/142/143 144/143/144 92/94/92 93/96/93
f 144/143/144 145/144/145 91/92/91 92/94/92
f 145/144/145 146/145/146 90/90/90 91/92/91
f 146/145/146 147/146/147 89/88/89 90/90/90
f 147/146/147 137/2/137 18/1/18 89/88/89
f 16/9/16 5/116/5 2/147/2 136/136/136
